<?xml version="1.0" standalone="no"?>
<!DOCTYPE svg PUBLIC "-//W3C//DTD SVG 20010904//EN"
 "http://www.w3.org/TR/2001/REC-SVG-20010904/DTD/svg10.dtd">
<svg version="1.0" xmlns="http://www.w3.org/2000/svg"
 width="512.000000pt" height="512.000000pt" viewBox="0 0 512.000000 512.000000"
 preserveAspectRatio="xMidYMid meet">

<g transform="translate(0.000000,512.000000) scale(0.100000,-0.100000)"
fill="#000000" stroke="none">
<path d="M2185 5064 c-88 -48 -114 -102 -115 -236 l0 -97 -42 -11 c-541 -136
-1008 -465 -1320 -929 -38 -57 -86 -136 -106 -175 -31 -62 -36 -80 -37 -141 0
-59 5 -78 29 -123 106 -191 364 -174 467 31 12 23 44 76 72 117 204 308 511
549 850 669 l87 30 0 -60 c0 -33 7 -76 16 -97 39 -95 140 -147 234 -122 48 13
657 415 688 454 52 67 55 169 6 238 -35 50 -72 65 -111 46 -43 -20 -52 -61
-25 -108 12 -22 22 -48 22 -59 0 -16 -71 -69 -311 -228 -306 -205 -311 -207
-337 -192 -27 14 -27 17 -32 138 -5 114 -7 124 -29 142 -31 25 -52 24 -165
-11 -287 -88 -535 -233 -744 -434 -149 -144 -255 -279 -351 -448 -38 -67 -63
-88 -108 -88 -65 0 -113 45 -113 106 0 53 133 263 268 425 281 335 704 592
1124 683 112 25 118 34 118 195 0 86 4 131 12 139 22 22 62 13 123 -28 70 -46
96 -49 130 -15 49 48 30 90 -71 156 -60 39 -75 44 -133 46 -47 2 -75 -1 -96
-13z"/>
<path d="M3399 4547 c-119 -45 -179 -129 -179 -252 0 -96 62 -185 163 -236
170 -87 394 -279 537 -462 69 -89 103 -102 153 -59 52 45 -3 135 -207 337
-135 135 -240 217 -384 300 -96 56 -112 74 -112 128 0 31 7 46 34 73 51 51 80
47 210 -31 483 -287 826 -750 961 -1295 13 -52 26 -102 30 -111 12 -30 54 -39
178 -39 132 0 147 -5 147 -49 0 -31 -386 -618 -412 -626 -10 -4 -26 -4 -37 0
-10 3 -110 143 -222 311 -200 301 -203 306 -188 332 14 26 17 27 138 32 114 5
124 7 142 29 26 32 24 73 -4 99 -21 20 -34 22 -145 22 -134 0 -175 -11 -225
-58 -54 -51 -75 -124 -57 -192 13 -48 415 -657 454 -688 64 -50 166 -55 233
-10 28 19 93 107 253 347 l214 323 4 62 c3 49 0 71 -16 102 -44 87 -101 114
-236 114 l-95 0 -11 43 c-135 538 -467 1009 -929 1319 -199 133 -302 168 -392
135z"/>
<path d="M2420 3874 c-441 -55 -821 -313 -1026 -699 -58 -108 -96 -214 -125
-345 -34 -150 -34 -390 0 -539 30 -138 77 -267 104 -286 30 -21 60 -19 91 6
33 26 33 51 -3 152 -55 156 -66 227 -65 407 1 143 5 178 27 261 88 333 279
586 563 747 503 283 1143 155 1493 -299 283 -365 328 -843 119 -1252 -52 -101
-156 -244 -224 -308 -76 -72 -184 -147 -281 -197 -338 -172 -719 -174 -1058
-5 -101 51 -123 65 -216 140 -75 60 -112 68 -147 30 -36 -38 -29 -74 25 -125
96 -89 273 -193 419 -245 149 -54 264 -72 449 -71 147 0 185 4 280 26 376 89
674 311 864 642 64 113 106 221 139 361 22 95 26 133 26 280 1 188 -18 303
-74 456 -133 360 -421 651 -780 786 -126 48 -264 73 -420 77 -80 3 -161 2
-180 0z"/>
<path d="M2415 3563 c-85 -13 -200 -49 -284 -89 -219 -103 -382 -266 -485
-485 -73 -155 -90 -236 -90 -429 0 -193 17 -274 90 -429 133 -282 364 -470
684 -558 103 -28 367 -25 480 6 362 97 632 369 732 736 31 113 35 316 9 440
-25 121 -43 150 -96 150 -29 0 -42 -6 -58 -27 -19 -26 -19 -26 2 -132 59 -292
-19 -569 -218 -780 -156 -164 -392 -266 -617 -266 -393 -1 -733 262 -840 650
-26 92 -26 328 0 420 85 308 318 542 621 624 33 9 112 19 175 22 151 8 270
-16 406 -80 53 -25 105 -46 116 -46 29 0 68 45 68 78 0 39 -29 64 -130 111
-133 61 -231 83 -395 86 -77 2 -153 1 -170 -2z"/>
<path d="M2537 3250 c-15 -12 -29 -35 -33 -54 -5 -30 -10 -34 -45 -40 -116
-19 -227 -94 -271 -184 -32 -67 -32 -187 0 -254 41 -83 147 -157 273 -189 l49
-13 0 -162 0 -162 -36 9 c-58 17 -120 46 -176 83 -58 39 -84 44 -127 21 -51
-26 -58 -96 -14 -139 40 -40 198 -114 274 -128 l67 -12 4 -64 c4 -56 8 -68 32
-89 22 -18 36 -23 55 -18 43 10 55 30 59 100 4 61 6 66 31 71 156 31 255 101
296 206 22 59 18 186 -9 239 -39 81 -152 158 -277 190 l-49 13 0 157 0 158 33
-10 c17 -5 64 -25 103 -45 51 -26 79 -35 97 -30 66 16 97 88 58 138 -27 34
-122 82 -210 104 -68 18 -69 19 -75 55 -6 40 -19 54 -56 64 -18 4 -34 0 -53
-15z m-27 -395 l0 -145 -25 10 c-93 35 -125 72 -125 141 0 39 5 55 28 79 22
26 85 58 115 60 4 0 7 -65 7 -145z m213 -407 c104 -52 101 -190 -6 -238 -79
-36 -77 -39 -77 126 l0 145 23 -7 c12 -3 39 -15 60 -26z"/>
<path d="M529 3027 c-40 -20 -66 -56 -264 -350 l-219 -328 -4 -63 c-3 -49 0
-71 16 -102 48 -94 97 -114 282 -114 127 0 142 2 160 20 33 33 30 75 -6 108
-23 20 -34 22 -153 22 -141 0 -157 6 -149 57 4 27 379 600 402 615 41 27 51
15 263 -303 205 -306 207 -311 192 -337 -14 -27 -17 -27 -138 -32 -114 -5
-124 -7 -142 -29 -10 -13 -19 -33 -19 -45 0 -32 53 -200 95 -301 148 -362 437
-690 786 -895 100 -58 119 -79 119 -127 0 -65 -45 -113 -106 -113 -53 0 -259
130 -427 270 -162 136 -333 337 -441 522 -27 46 -56 91 -64 101 -22 25 -74 22
-100 -6 -40 -42 -28 -77 83 -247 199 -306 481 -568 790 -736 83 -45 95 -49
160 -49 58 0 79 5 123 29 191 106 174 364 -31 467 -160 82 -386 273 -519 439
-104 131 -210 323 -267 483 l-30 87 60 0 c33 0 76 7 97 16 95 39 147 140 122
234 -11 41 -409 649 -446 682 -58 51 -154 62 -225 25z"/>
<path d="M4195 1876 c-56 -25 -104 -75 -136 -139 -113 -223 -358 -480 -604
-634 -70 -44 -247 -128 -330 -157 l-70 -25 -6 72 c-6 79 -22 118 -66 158 -53
49 -117 67 -183 49 -48 -13 -657 -415 -688 -454 -50 -64 -55 -166 -10 -233 19
-28 107 -93 347 -253 l323 -214 62 -4 c49 -3 71 0 102 16 87 44 114 101 114
236 l0 95 43 11 c88 23 213 62 245 77 49 23 61 91 20 126 -27 23 -51 22 -139
-9 -41 -14 -117 -36 -169 -49 -52 -13 -102 -26 -111 -30 -29 -11 -39 -54 -39
-171 0 -129 -8 -154 -48 -154 -32 0 -618 385 -627 412 -4 10 -4 26 0 37 3 10
143 110 311 222 301 200 306 203 332 188 26 -14 27 -17 32 -138 5 -116 6 -124
30 -143 32 -26 77 -20 219 28 191 65 385 167 534 281 100 76 284 261 357 358
37 50 93 134 125 188 32 54 68 105 79 113 11 8 38 14 59 14 31 0 46 -7 73 -34
51 -51 47 -80 -31 -210 -124 -209 -293 -404 -487 -565 -80 -65 -88 -75 -88
-106 0 -43 29 -75 69 -75 54 0 275 193 423 370 93 111 204 273 256 374 31 62
36 80 37 141 0 59 -5 78 -29 123 -66 119 -208 166 -331 108z"/>
</g>
</svg>
